<?xml version="1.0" encoding="UTF-8"?>
<svg id="Layer_1" data-name="Layer 1" xmlns="http://www.w3.org/2000/svg" viewBox="0 0 165.49 142.24">
  <defs>
    <style>
      .cls-1 {
        fill: #d6d6d6;
      }

      .cls-1, .cls-2, .cls-3, .cls-4 {
        stroke-width: 0px;
      }

      .cls-2 {
        fill: #c2c2c1;
      }

      .cls-3 {
        fill: #eee;
      }

      .cls-4 {
        fill: #d8d8d8;
      }
    </style>
  </defs>
  <path class="cls-3" d="M114.76,142.2c-22,0-44,.01-66,.02,11.1-7.41,13.8-13.37,11.32-24.95-2.07-9.67-11.65-18.68-21.46-19.69-9.71-.99-15.73,4.29-19.71,12.56-.15-5.63-.29-11.26-.44-16.89.81-10.93,2.76-21.78,2.19-32.8,3.85-13.84,5.52-28.25,10.99-41.66,1.06-2.61,1.92-5.31,3.01-7.9q5.7-13.55,17.33-4.9c.76.56,1.52,1.1,2.29,1.65,23.46,16.69,38.21,16.17,59.35-3.42,6.36-5.89,9.07-5.21,12.78,2.07,8.64,16.95,13.99,34.85,17.16,53.5,1.15,11.24,2.3,22.48,3.45,33.72-.17,5.02-.35,10.04-.52,15.05-11.39-13.03-21.47-14.74-32.54-5.51-12.91,10.76-12.61,25.02.82,39.15ZM82.24,97.26c14.26.19,26.51-9.9,26.87-22.12.36-12.17-11.69-22.94-25.86-23.13-14.26-.19-26.51,9.9-26.87,22.12-.36,12.17,11.69,22.95,25.86,23.13ZM63.98,44.83c-.72-6.88-4.2-11.38-11.26-11.51-6.55-.12-10.78,3.85-11.22,10.32-.48,7.01,3.59,11.51,10.52,11.93,7.05.44,10.78-3.97,11.96-10.74ZM124.27,44.27c-1.08-6.8-4.73-11.19-11.8-10.95-6.5.23-10.6,4.31-10.69,10.85-.1,7.01,4.09,11.33,11.07,11.4,7.06.07,10.59-4.46,11.43-11.31ZM57.44,21.1c-13.88-11.39-14.3-11.3-17.45,3.26,5.66-1.06,11.1-2.07,17.45-3.26ZM107.92,21.21c6.59,1.07,12.15,1.97,18.26,2.96q-4.96-13.81-18.26-2.96Z"/>
  <path class="cls-4" d="M114.67,142.17c-13.43-14.13-13.73-28.39-.82-39.15,11.08-9.23,21.16-7.52,32.54,5.51,1.18,23.07-9.8,34.71-31.73,33.64Z"/>
  <path class="cls-4" d="M18.83,110.11c3.98-8.27,10-13.55,19.71-12.56,9.81,1,19.38,10.02,21.46,19.69,2.48,11.58-.22,17.54-11.32,24.95-20.16.91-30.71-10.42-29.85-32.08Z"/>
  <path class="cls-4" d="M146.92,93.47c-1.15-11.24-2.3-22.48-3.45-33.72,3.22,1.13,6.5,2.1,9.63,3.41,9.44,3.94,13.67,10.52,12.03,18.45-1.72,8.34-7.26,11.94-18.22,11.87Z"/>
  <path class="cls-4" d="M20.57,60.42c.58,11.02-1.38,21.87-2.19,32.8-10.81,0-16.88-3.77-18.15-12.01-1.4-9.12,3.44-14.71,11.5-17.91,2.87-1.14,5.88-1.93,8.83-2.88Z"/>
  <path class="cls-1" d="M82.16,97.23c-14.17-.18-26.21-10.96-25.86-23.13.36-12.22,12.61-22.3,26.87-22.12,14.17.18,26.21,10.96,25.86,23.13-.36,12.22-12.61,22.31-26.87,22.12ZM72.77,59.87c9.82,13.02,10.5,13.01,19.54,0h-19.54Z"/>
  <path class="cls-2" d="M63.89,44.81c-1.18,6.77-4.91,11.18-11.96,10.74-6.92-.43-11-4.92-10.52-11.93.44-6.47,4.66-10.45,11.22-10.32,7.06.13,10.53,4.64,11.26,11.51Z"/>
  <path class="cls-2" d="M124.18,44.25c-.83,6.85-4.37,11.38-11.43,11.31-6.98-.07-11.17-4.4-11.07-11.4.09-6.54,4.2-10.63,10.69-10.85,7.07-.24,10.72,4.15,11.8,10.95Z"/>
  <path class="cls-4" d="M57.35,21.07c-6.35,1.18-11.79,2.2-17.45,3.26,3.15-14.56,3.57-14.65,17.45-3.26Z"/>
  <path class="cls-4" d="M107.83,21.18q13.29-10.85,18.26,2.96c-6.11-.99-11.67-1.89-18.26-2.96Z"/>
  <path class="cls-2" d="M72.77,59.87h19.54c-9.03,13.01-9.72,13.02-19.54,0Z"/>
</svg>